<svg width="220" height="56" viewBox="0 0 220 56" fill="none" xmlns="http://www.w3.org/2000/svg">
  <rect width="220" height="56" rx="16" fill="white"/>
  <rect x="4" y="4" width="48" height="48" rx="14" fill="#0F172A"/>
  <circle cx="28" cy="28" r="12" stroke="white" stroke-width="2"/>
  <circle cx="24" cy="24" r="2" fill="white"/>
  <circle cx="33" cy="29" r="2" fill="white"/>
  <path d="M21 33C24 29.5 28.5 27.5 33 27.5" stroke="white" stroke-width="2" stroke-linecap="round"/>
  <path d="M65 34V20H72.56C76.54 20 79.04 22.22 79.04 25.56C79.04 28.96 76.54 31.14 72.56 31.14H68.16V34H65ZM68.16 28.42H72.32C74.38 28.42 75.82 27.4 75.82 25.56C75.82 23.74 74.38 22.72 72.32 22.72H68.16V28.42ZM85.1445 34.28C81.9845 34.28 79.5645 32.06 79.5645 28.84C79.5645 25.62 81.9845 23.44 85.1445 23.44C88.3245 23.44 90.7245 25.62 90.7245 28.84C90.7245 32.06 88.3245 34.28 85.1445 34.28ZM85.1445 31.72C86.7245 31.72 87.7445 30.54 87.7445 28.84C87.7445 27.16 86.7245 25.98 85.1445 25.98C83.6045 25.98 82.5645 27.16 82.5645 28.84C82.5645 30.54 83.6045 31.72 85.1445 31.72ZM96.3248 34.28C94.5648 34.28 92.6848 33.68 91.4048 32.72L92.4848 30.64C93.6648 31.48 95.2048 31.98 96.5248 31.98C97.9848 31.98 98.5248 31.58 98.5248 30.96C98.5248 29.12 91.7448 31 91.7448 26.54C91.7448 24.42 93.6648 23.44 96.1848 23.44C97.6648 23.44 99.3048 23.78 100.445 24.44L99.3648 26.5C98.1848 25.84 97.0048 25.62 96.1648 25.62C94.7448 25.62 94.1448 26.06 94.1448 26.66C94.1448 28.58 100.925 26.72 100.925 31.12C100.925 33.2 98.9848 34.28 96.3248 34.28ZM107.606 34.28C104.446 34.28 102.026 32.06 102.026 28.84C102.026 25.62 104.446 23.44 107.606 23.44C110.786 23.44 113.186 25.62 113.186 28.84C113.186 32.06 110.786 34.28 107.606 34.28ZM107.606 31.72C109.186 31.72 110.206 30.54 110.206 28.84C110.206 27.16 109.186 25.98 107.606 25.98C106.066 25.98 105.026 27.16 105.026 28.84C105.026 30.54 106.066 31.72 107.606 31.72Z" fill="#0F172A"/>
  <path d="M122.062 34.28C119.982 34.28 117.942 33.7 116.782 32.86L117.942 30.46C119.042 31.24 120.802 31.78 122.382 31.78C124.182 31.78 124.922 31.18 124.922 30.38C124.922 27.94 117.082 29.62 117.082 24.02C117.082 21.46 119.142 19.32 123.402 19.32C125.282 19.32 127.202 19.78 128.562 20.66L127.502 23.08C126.142 22.3 124.742 21.92 123.382 21.92C121.582 21.92 120.882 22.6 120.882 23.42C120.882 25.82 128.722 24.16 128.722 29.7C128.722 32.22 126.642 34.28 122.062 34.28ZM130.495 34V19.6H133.655V34H130.495ZM140.984 34.28C136.484 34.28 133.164 31.18 133.164 26.8C133.164 22.42 136.484 19.32 140.984 19.32C143.484 19.32 145.564 20.22 146.944 21.86L144.924 23.72C143.944 22.6 142.704 22.02 141.144 22.02C138.264 22.02 136.364 23.98 136.364 26.8C136.364 29.62 138.264 31.58 141.144 31.58C142.704 31.58 143.944 31 144.924 29.86L146.944 31.74C145.564 33.38 143.484 34.28 140.984 34.28Z" fill="#2563EB"/>
</svg>
