<svg width="1600" height="900" viewBox="0 0 1600 900" fill="none" xmlns="http://www.w3.org/2000/svg">
  <rect width="1600" height="900" fill="#020617"/>
  <rect width="1600" height="900" fill="url(#bgGlow)"/>
  <g opacity="0.9">
    <path d="M0 618C136 534 262 505 378 531C494 557 602 647 722 660C842 673 974 609 1088 553C1202 497 1298 449 1401 455C1504 461 1614 521 1600 521V900H0V618Z" fill="url(#bottomWash)"/>
    <path d="M1013 66C1160 24 1310 34 1435 101C1560 168 1600 267 1600 267V900H1047C1019 791 960 684 933 568C902 435 914 294 1013 66Z" fill="url(#rightPanel)"/>
  </g>
  <g opacity="0.22">
    <circle cx="1302" cy="194" r="194" fill="url(#accentOrb)"/>
    <circle cx="1126" cy="664" r="246" fill="url(#accentOrbSoft)"/>
  </g>
  <g opacity="0.16">
    <path d="M936 0H948V900H936V0Z" fill="white"/>
    <path d="M991 0H993V900H991V0Z" fill="white"/>
  </g>
  <g opacity="0.42">
    <path d="M0 122H764" stroke="url(#lineFade)" stroke-width="2"/>
    <path d="M0 742H850" stroke="url(#lineFade)" stroke-width="2"/>
  </g>
  <g opacity="0.22">
    <circle cx="120" cy="120" r="7" fill="#38BDF8"/>
    <circle cx="167" cy="120" r="7" fill="#38BDF8"/>
    <circle cx="214" cy="120" r="7" fill="#38BDF8"/>
  </g>
  <defs>
    <radialGradient id="bgGlow" cx="0" cy="0" r="1" gradientUnits="userSpaceOnUse" gradientTransform="translate(1290 174) rotate(132.661) scale(812.852 1116.1)">
      <stop stop-color="#0EA5E9" stop-opacity="0.33"/>
      <stop offset="0.4" stop-color="#0F172A" stop-opacity="0.12"/>
      <stop offset="1" stop-color="#020617" stop-opacity="0"/>
    </radialGradient>
    <linearGradient id="bottomWash" x1="1432" y1="465" x2="494" y2="1002" gradientUnits="userSpaceOnUse">
      <stop stop-color="#0EA5E9" stop-opacity="0.48"/>
      <stop offset="1" stop-color="#38BDF8" stop-opacity="0.06"/>
    </linearGradient>
    <linearGradient id="rightPanel" x1="1266" y1="66" x2="1266" y2="900" gradientUnits="userSpaceOnUse">
      <stop stop-color="#0F172A" stop-opacity="0.18"/>
      <stop offset="0.42" stop-color="#111827" stop-opacity="0.72"/>
      <stop offset="1" stop-color="#020617" stop-opacity="0.95"/>
    </linearGradient>
    <radialGradient id="accentOrb" cx="0" cy="0" r="1" gradientUnits="userSpaceOnUse" gradientTransform="translate(1302 194) rotate(90) scale(194)">
      <stop stop-color="#67E8F9"/>
      <stop offset="1" stop-color="#67E8F9" stop-opacity="0"/>
    </radialGradient>
    <radialGradient id="accentOrbSoft" cx="0" cy="0" r="1" gradientUnits="userSpaceOnUse" gradientTransform="translate(1126 664) rotate(90) scale(246)">
      <stop stop-color="#0EA5E9"/>
      <stop offset="1" stop-color="#0EA5E9" stop-opacity="0"/>
    </radialGradient>
    <linearGradient id="lineFade" x1="0" y1="122" x2="764" y2="122" gradientUnits="userSpaceOnUse">
      <stop stop-color="white" stop-opacity="0.24"/>
      <stop offset="1" stop-color="white" stop-opacity="0"/>
    </linearGradient>
  </defs>
</svg>
