<svg width="160" height="160" viewBox="0 0 160 160" fill="none" xmlns="http://www.w3.org/2000/svg">
  <rect width="160" height="160" rx="12" fill="white"/>
  <rect x="18" y="18" width="36" height="36" fill="#111827"/>
  <rect x="26" y="26" width="20" height="20" fill="white"/>
  <rect x="106" y="18" width="36" height="36" fill="#111827"/>
  <rect x="114" y="26" width="20" height="20" fill="white"/>
  <rect x="18" y="106" width="36" height="36" fill="#111827"/>
  <rect x="26" y="114" width="20" height="20" fill="white"/>
  <rect x="70" y="20" width="10" height="10" fill="#111827"/>
  <rect x="86" y="20" width="10" height="10" fill="#111827"/>
  <rect x="70" y="36" width="10" height="10" fill="#111827"/>
  <rect x="86" y="36" width="10" height="10" fill="#111827"/>
  <rect x="68" y="68" width="12" height="12" fill="#111827"/>
  <rect x="84" y="68" width="12" height="12" fill="#111827"/>
  <rect x="100" y="68" width="12" height="12" fill="#111827"/>
  <rect x="52" y="84" width="12" height="12" fill="#111827"/>
  <rect x="68" y="84" width="12" height="12" fill="#111827"/>
  <rect x="100" y="84" width="12" height="12" fill="#111827"/>
  <rect x="84" y="100" width="12" height="12" fill="#111827"/>
  <rect x="100" y="100" width="12" height="12" fill="#111827"/>
  <rect x="116" y="100" width="12" height="12" fill="#111827"/>
  <rect x="68" y="116" width="12" height="12" fill="#111827"/>
  <rect x="100" y="116" width="12" height="12" fill="#111827"/>
  <rect x="116" y="116" width="12" height="12" fill="#111827"/>
</svg>
